<svg width="25" height="36" viewBox="0 0 25 36" fill="none" xmlns="http://www.w3.org/2000/svg">
<path d="M14.6711 35.8066L17.9953 30.51C18.0888 30.36 18.2672 30.288 18.4367 30.3291L24.4945 31.7746C24.819 31.8525 25.0953 31.5276 24.9696 31.2173L19.8269 18.5375L8.80044 23.0636L13.9431 35.7434C14.0688 36.0551 14.4928 36.0919 14.6711 35.8081V35.8066Z" fill="url(#paint0_linear_86_24)"/>
<path d="M16.2016 23.0621L13.3876 29.9983L13.2955 30.2233L11.0575 35.7419C10.9318 36.0537 10.5078 36.0904 10.3295 35.8066L7.00533 30.5115C6.91178 30.363 6.7349 30.2894 6.56386 30.3306L0.506092 31.7761C0.181568 31.854 -0.0947151 31.529 0.0310012 31.2173L5.17367 18.5375L16.2002 23.0636L16.2016 23.0621Z" fill="url(#paint1_linear_86_24)"/>
<path d="M12.5018 24.5384C19.2382 24.5384 24.6992 19.0452 24.6992 12.2689C24.6992 5.49255 19.2382 -0.000732422 12.5018 -0.000732422C5.76533 -0.000732422 0.304361 5.49255 0.304361 12.2689C0.304361 19.0452 5.76533 24.5384 12.5018 24.5384Z" fill="url(#paint2_linear_86_24)"/>
<path d="M12.5018 23.4488C6.37383 23.4488 1.38903 18.4345 1.38903 12.2703C1.38903 6.10612 6.37383 1.09035 12.5018 1.09035C18.6297 1.09035 23.6145 6.10465 23.6145 12.2689C23.6145 18.4331 18.6297 23.4474 12.5018 23.4474V23.4488Z" fill="url(#paint3_linear_86_24)"/>
<path d="M12.5018 22.7636C18.2637 22.7636 22.9348 18.0649 22.9348 12.2689C22.9348 6.47277 18.2637 1.77412 12.5018 1.77412C6.73978 1.77412 2.06877 6.47277 2.06877 12.2689C2.06877 18.0649 6.73978 22.7636 12.5018 22.7636Z" fill="url(#paint4_linear_86_24)"/>
<defs>
<linearGradient id="paint0_linear_86_24" x1="0.972303" y1="24.551" x2="25.6548" y2="16.9974" gradientUnits="userSpaceOnUse">
<stop stop-color="#FF0000"/>
<stop offset="0.04" stop-color="#E10000"/>
<stop offset="0.08" stop-color="#960000"/>
<stop offset="0.29" stop-color="#F80003"/>
<stop offset="0.44" stop-color="#DC0004"/>
<stop offset="0.56" stop-color="#F80003"/>
<stop offset="0.69" stop-color="#CD0001"/>
<stop offset="0.85" stop-color="#980001"/>
<stop offset="0.96" stop-color="#E30002"/>
<stop offset="1" stop-color="#FF0002"/>
</linearGradient>
<linearGradient id="paint1_linear_86_24" x1="0.39973" y1="11.9017" x2="27.5514" y2="19.6872" gradientUnits="userSpaceOnUse">
<stop stop-color="#FF0000"/>
<stop offset="0.04" stop-color="#E10000"/>
<stop offset="0.08" stop-color="#960000"/>
<stop offset="0.29" stop-color="#F80003"/>
<stop offset="0.44" stop-color="#DC0004"/>
<stop offset="0.56" stop-color="#F80003"/>
<stop offset="0.69" stop-color="#CD0001"/>
<stop offset="0.85" stop-color="#980001"/>
<stop offset="0.96" stop-color="#E30002"/>
<stop offset="1" stop-color="#FF0002"/>
</linearGradient>
<linearGradient id="paint2_linear_86_24" x1="2.88837" y1="6.0333" x2="30.6267" y2="22.6898" gradientUnits="userSpaceOnUse">
<stop stop-color="#93918F"/>
<stop offset="0.13" stop-color="#C0BCB7"/>
<stop offset="0.27" stop-color="#A4A6A9"/>
<stop offset="0.4" stop-color="#C1C1C5"/>
<stop offset="0.54" stop-color="#F4F4F5"/>
<stop offset="0.69" stop-color="#C3C6CA"/>
<stop offset="0.85" stop-color="#E7E7E3"/>
<stop offset="1" stop-color="#707574"/>
</linearGradient>
<linearGradient id="paint3_linear_86_24" x1="-0.00164434" y1="17.9988" x2="25.0006" y2="17.9988" gradientUnits="userSpaceOnUse">
<stop stop-color="#787675"/>
<stop offset="0.13" stop-color="#A6A29E"/>
<stop offset="0.27" stop-color="#6F7173"/>
<stop offset="0.4" stop-color="#828285"/>
<stop offset="0.54" stop-color="#AFAFB0"/>
<stop offset="0.69" stop-color="#67696B"/>
<stop offset="0.85" stop-color="#ADADAA"/>
<stop offset="1" stop-color="#707574"/>
</linearGradient>
<linearGradient id="paint4_linear_86_24" x1="4.71466" y1="5.5121" x2="27.4516" y2="25.0116" gradientUnits="userSpaceOnUse">
<stop stop-color="#93918F"/>
<stop offset="0.13" stop-color="#C0BCB7"/>
<stop offset="0.27" stop-color="#A4A6A9"/>
<stop offset="0.4" stop-color="#C1C1C5"/>
<stop offset="0.54" stop-color="#F4F4F5"/>
<stop offset="0.69" stop-color="#C3C6CA"/>
<stop offset="0.85" stop-color="#E7E7E3"/>
<stop offset="1" stop-color="#707574"/>
</linearGradient>
</defs>
</svg>
